<?xml version="1.0" encoding="UTF-8" standalone="no"?>
<svg
   width="438"
   height="514"
   viewBox="0 0 438 514"
   fill="none"
   version="1.1"
   id="svg33"
   sodipodi:docname="CanvasJS.svg"
   inkscape:version="1.3.2 (091e20e, 2023-11-25, custom)"
   xmlns:inkscape="http://www.inkscape.org/namespaces/inkscape"
   xmlns:sodipodi="http://sodipodi.sourceforge.net/DTD/sodipodi-0.dtd"
   xmlns="http://www.w3.org/2000/svg"
   xmlns:svg="http://www.w3.org/2000/svg">
  <defs
     id="defs33" />
  <sodipodi:namedview
     id="namedview33"
     pagecolor="#ffffff"
     bordercolor="#000000"
     borderopacity="0.25"
     inkscape:showpageshadow="2"
     inkscape:pageopacity="0.0"
     inkscape:pagecheckerboard="0"
     inkscape:deskcolor="#d1d1d1"
     inkscape:zoom="4.7354086"
     inkscape:cx="377.47535"
     inkscape:cy="315.17872"
     inkscape:window-width="2880"
     inkscape:window-height="1514"
     inkscape:window-x="-11"
     inkscape:window-y="-11"
     inkscape:window-maximized="1"
     inkscape:current-layer="svg33"
     showgrid="true">
    <inkscape:grid
       id="grid43"
       units="px"
       originx="0"
       originy="0"
       spacingx="1"
       spacingy="1"
       empcolor="#0099e5"
       empopacity="0.30196078"
       color="#0099e5"
       opacity="0.14901961"
       empspacing="5"
       dotted="false"
       gridanglex="30"
       gridanglez="30"
       visible="true" />
  </sodipodi:namedview>
  <path
     d="M410.5 59L377 152.5L390 158L437 71.5L410.5 59Z"
     fill="black"
     id="path1"
     style="font-variation-settings:normal;opacity:1;vector-effect:none;fill:#4285f4;fill-opacity:1;stroke-width:1;stroke-linecap:butt;stroke-linejoin:miter;stroke-miterlimit:4;stroke-dasharray:none;stroke-dashoffset:0;stroke-opacity:1;-inkscape-stroke:none;stop-color:#000000;stop-opacity:1;stroke:none" />
  <path
     d="M395 7L364.5 148L349.5 144.5L361 1L395 7Z"
     fill="black"
     id="path2"
     style="font-variation-settings:normal;opacity:1;vector-effect:none;fill:#4285f4;fill-opacity:1;stroke-width:1;stroke-linecap:butt;stroke-linejoin:miter;stroke-miterlimit:4;stroke-dasharray:none;stroke-dashoffset:0;stroke-opacity:1;-inkscape-stroke:none;stop-color:#000000;stop-opacity:1;stroke:none" />
  <path
     d="M335 88.5V144.5H321L311 88.5H335Z"
     fill="black"
     id="path3"
     style="font-variation-settings:normal;opacity:1;vector-effect:none;fill:#4285f4;fill-opacity:1;stroke-width:1;stroke-linecap:butt;stroke-linejoin:miter;stroke-miterlimit:4;stroke-dasharray:none;stroke-dashoffset:0;stroke-opacity:1;-inkscape-stroke:none;stop-color:#000000;stop-opacity:1" />
  <path
     d="M278.5 54L307.5 148L294.5 152.5L253 63.5L278.5 54Z"
     fill="black"
     id="path4"
     style="fill:#4285f4;fill-opacity:1" />
  <path
     d="M166.5 11.5L274 164L264 173.5L137 35L166.5 11.5Z"
     fill="black"
     id="path5"
     style="font-variation-settings:normal;opacity:1;vector-effect:none;fill:#fbbc05;fill-opacity:1;stroke:none;stroke-width:0;stroke-linecap:butt;stroke-linejoin:miter;stroke-miterlimit:4;stroke-dasharray:none;stroke-dashoffset:0;stroke-opacity:1;-inkscape-stroke:none;stop-color:#000000;stop-opacity:1" />
  <path
     d="M123.5 96.5L249 189.5L241.5 202L103.5 124L123.5 96.5Z"
     fill="black"
     id="path6"
     style="fill:#fbbc05;fill-opacity:1;stroke:none;stroke-width:0;stroke-dasharray:none" />
  <path
     d="M160.5 185L235 215L230.5 228.5L154.5 207.5L160.5 185Z"
     fill="black"
     id="path7"
     style="fill:#fbbc05;fill-opacity:1;stroke:none;stroke-width:0;stroke-dasharray:none" />
  <path
     d="M1 215L226.5 243V258H1V215Z"
     fill="black"
     id="path8"
     style="font-variation-settings:normal;opacity:1;vector-effect:none;fill:#fbbc05;fill-opacity:1;stroke:none;stroke-width:0;stroke-linecap:butt;stroke-linejoin:miter;stroke-miterlimit:4;stroke-dasharray:none;stroke-dashoffset:0;stroke-opacity:1;-inkscape-stroke:none;stop-color:#000000;stop-opacity:1" />
  <path
     d="M53.5 294.5L226.5 272.5L230.5 285L60 330L53.5 294.5Z"
     fill="black"
     id="path9"
     style="fill:#33a752;fill-opacity:1" />
  <path
     d="M120.5 345.5L235 300L241.5 311.5L137 374L120.5 345.5Z"
     fill="black"
     id="path10"
     style="font-variation-settings:normal;opacity:1;vector-effect:none;fill:#33a752;fill-opacity:1;stroke-width:1;stroke-linecap:butt;stroke-linejoin:miter;stroke-miterlimit:4;stroke-dasharray:none;stroke-dashoffset:0;stroke-opacity:1;-inkscape-stroke:none;stop-color:#000000;stop-opacity:1" />
  <path
     d="M182 374L249 324L257 335.5L199 395.5L182 374Z"
     fill="black"
     id="path11"
     style="font-variation-settings:normal;opacity:1;vector-effect:none;fill:#33a752;fill-opacity:1;stroke-width:1;stroke-linecap:butt;stroke-linejoin:miter;stroke-miterlimit:4;stroke-dasharray:none;stroke-dashoffset:0;stroke-opacity:1;-inkscape-stroke:none;stop-color:#000000;stop-opacity:1" />
  <path
     d="M154.5 487.5L269 345.5L280 352.5L188 509.5L154.5 487.5Z"
     fill="black"
     id="path12"
     style="font-variation-settings:normal;opacity:1;vector-effect:none;fill:#33a752;fill-opacity:1;stroke-width:1;stroke-linecap:butt;stroke-linejoin:miter;stroke-miterlimit:4;stroke-dasharray:none;stroke-dashoffset:0;stroke-opacity:1;-inkscape-stroke:none;stop-color:#000000;stop-opacity:1" />
  <path
     d="M235 500.5L294.5 362L307.5 366.5L264 513L235 500.5Z"
     fill="black"
     id="path13"
     style="fill:#ea4335;fill-opacity:1" />
  <path
     d="M321 369.5H337V409.5H315L321 369.5Z"
     fill="black"
     id="path14"
     style="font-variation-settings:normal;opacity:1;vector-effect:none;fill:#ea4335;fill-opacity:1;stroke-width:1;stroke-linecap:butt;stroke-linejoin:miter;stroke-miterlimit:4;stroke-dasharray:none;stroke-dashoffset:0;stroke-opacity:1;-inkscape-stroke:none;stop-color:#000000;stop-opacity:1" />
  <path
     d="M353 369.5H364.5L390 473L361 478L353 369.5Z"
     fill="black"
     id="path15"
     style="font-variation-settings:normal;opacity:1;vector-effect:none;fill:#ea4335;fill-opacity:1;stroke-width:1;stroke-linecap:butt;stroke-linejoin:miter;stroke-miterlimit:4;stroke-dasharray:none;stroke-dashoffset:0;stroke-opacity:1;-inkscape-stroke:none;stop-color:#000000;stop-opacity:1" />
  <path
     d="M380.5 362L394 357L433.5 435.5L409.5 445.5L380.5 362Z"
     fill="black"
     id="path16"
     style="font-variation-settings:normal;opacity:1;vector-effect:none;fill:#ea4335;fill-opacity:1;stroke-width:1;stroke-linecap:butt;stroke-linejoin:miter;stroke-miterlimit:4;stroke-dasharray:none;stroke-dashoffset:0;stroke-opacity:1;-inkscape-stroke:none;stop-color:#000000;stop-opacity:1" />
  <path
     d="M 410.5,59 377,152.5 390,158 437,71.5 Z"
     stroke="#000000"
     id="path17"
     inkscape:highlight-color="#1baaaa"
     style="opacity:0.00000001" />
  <path
     d="M395 7L364.5 148L349.5 144.5L361 1L395 7Z"
     stroke="black"
     id="path18"
     style="opacity:0" />
  <path
     d="M335 88.5V144.5H321L311 88.5H335Z"
     stroke="black"
     id="path19"
     style="opacity:0" />
  <path
     d="M278.5 54L307.5 148L294.5 152.5L253 63.5L278.5 54Z"
     stroke="black"
     id="path20"
     style="opacity:0" />
  <path
     d="M166.5 11.5L274 164L264 173.5L137 35L166.5 11.5Z"
     stroke="black"
     id="path21"
     style="opacity:0" />
  <path
     d="M123.5 96.5L249 189.5L241.5 202L103.5 124L123.5 96.5Z"
     stroke="black"
     id="path22"
     style="opacity:0" />
  <path
     d="M160.5 185L235 215L230.5 228.5L154.5 207.5L160.5 185Z"
     stroke="black"
     id="path23"
     style="fill:none;fill-opacity:1;opacity:0" />
  <path
     d="M1 215L226.5 243V258H1V215Z"
     stroke="black"
     id="path24"
     style="opacity:0" />
  <path
     d="M53.5 294.5L226.5 272.5L230.5 285L60 330L53.5 294.5Z"
     stroke="black"
     id="path25"
     style="opacity:0" />
  <path
     d="M120.5 345.5L235 300L241.5 311.5L137 374L120.5 345.5Z"
     stroke="black"
     id="path26"
     style="opacity:0" />
  <path
     d="M182 374L249 324L257 335.5L199 395.5L182 374Z"
     stroke="black"
     id="path27"
     style="opacity:0" />
  <path
     d="M154.5 487.5L269 345.5L280 352.5L188 509.5L154.5 487.5Z"
     stroke="black"
     id="path28"
     style="opacity:0" />
  <path
     d="M235 500.5L294.5 362L307.5 366.5L264 513L235 500.5Z"
     stroke="black"
     id="path29"
     style="opacity:0" />
  <path
     d="M321 369.5H337V409.5H315L321 369.5Z"
     stroke="black"
     id="path30"
     style="opacity:0" />
  <path
     d="M353 369.5H364.5L390 473L361 478L353 369.5Z"
     stroke="black"
     id="path31"
     style="opacity:0" />
  <path
     d="M380.5 362L394 357L433.5 435.5L409.5 445.5L380.5 362Z"
     stroke="black"
     id="path32"
     style="opacity:0" />
  <path
     d="m 360.969,267.203 31.015,9.375 c -2.083,8.698 -5.364,15.964 -9.843,21.797 -4.48,5.833 -10.052,10.234 -16.719,13.203 C 358.807,314.547 350.261,316 340,316 c -12.448,0 -22.083,-1.95265 -30,-5.54565 -7.864,-3.646 -15.099,-9.83935 -20.828,-18.95435 -5.729,-9.115 -8.14317,-20.67251 -8.14317,-34.89151 0,-18.958 4.57517,-33.62449 14.62717,-43.78049 10.104,-10.208 24.375,-15.312 42.813,-15.312 14.427,0 25.755,2.916 33.984,8.75 8.281,5.833 14.05744,14.65 18.06844,26.734 -9.46559,2.10608 -20.46377,4.77633 -30.88044,7.094 -1.094,-3.49 -2.24,-6.042 -3.438,-7.656 -1.979,-2.709 -4.401,-4.792 -7.265,-6.25 -2.865,-1.459 -6.068,-2.188 -9.61,-2.188 -8.021,0 -14.167,3.229 -18.437,9.688 -3.23,4.791 -4.12021,14.29173 -4.891,24.312 -1,13 2.146,20.26 6,25 3.854,4.687 9.099,6.469 16.078,6.469 6.771,0 11.875,-1.901 15.313,-5.703 3.489,-3.802 6.015,-9.323 7.578,-16.563 z"
     fill="#000000"
     id="path33"
     style="opacity:0"
     sodipodi:nodetypes="ccccscsscscccccscscscc" />
  <path
     id="Bleu"
     style="opacity:1;fill:#ea4335;stroke:none;stroke-width:0.597293;stroke-opacity:1;-inkscape-stroke:none;fill-opacity:1"
     d="M 321.30859 281.11719 L 305.70898 308.51172 C 312.26994 312.35482 320.07821 314.63742 329.59961 315.55469 C 336.38644 316.20852 349.40493 316.09502 355 315 C 369.67068 312.12881 380.40671 304.10273 387 291 C 389.53109 285.97004 392.5302 277.12396 391.98438 276.57812 C 391.65352 276.24729 361.11454 267.01626 360.96875 267.20312 C 360.90777 267.28129 360.33131 270.09107 359.58984 272.39062 C 358.2782 276.45862 356.72395 279.45965 354.92969 281.89258 C 353.10722 284.36375 350.84236 285.70138 348 287 C 345.49979 288.14229 343.6176 289.37191 338.36719 289.37891 C 332.85345 289.38634 330.50339 288.35973 327.61523 287 C 324.66543 285.61124 322.82318 283.51342 321.30859 281.11719 z "
     inkscape:label="rouge" />
  <path
     id="path40"
     style="opacity:1;fill:#33a752;stroke:none;stroke-width:0.597293;stroke-opacity:1;-inkscape-stroke:none;fill-opacity:1"
     d="M 281.08594 259.02344 C 281.37009 274.32429 284.39359 285.73138 292 296 C 295.90745 301.27505 300.4011 305.40261 305.70898 308.51172 L 321.30859 281.11719 C 320.48341 279.81166 319.75112 278.4217 319 277 C 316.32585 271.93846 316.10568 268.5986 316.11719 259.80273 L 281.08594 259.02344 z "
     inkscape:label="vert" />
  <path
     id="path39"
     style="opacity:1;fill:#f9bc06;stroke:none;stroke-width:0.597293;stroke-opacity:1;-inkscape-stroke:none;fill-opacity:1"
     d="M 281.08594 259.02344 L 316.11719 259.80273 C 316.11863 258.70127 316.10839 257.8434 316.11328 256.54492 C 316.11428 256.27694 316.15018 256.04568 316.17188 255.80664 C 316.19706 255.52778 316.21109 255.24193 316.24219 254.95703 C 316.33997 254.06024 316.39459 253.15412 316.46289 252.41602 C 316.60678 250.86004 316.72881 249.7165 316.85547 248.62891 C 316.92594 248.02386 316.99234 247.36633 317.07812 246.83203 C 317.28983 245.51436 317.4441 244.42932 317.64844 243.17188 C 317.7059 242.81827 317.79341 242.37257 317.89453 242 C 319.68221 235.41338 322.94181 230.29295 327.66016 227.2793 L 315.83398 200.71484 C 305.16207 204.11992 296.65275 210.37172 290.84961 218.55078 C 283.55524 228.83161 281.0343 240.1298 281.0293 256.60938 C 281.02906 257.4416 281.0709 258.21371 281.08594 259.02344 z "
     inkscape:label="jaune" />
  <path
     id="path38"
     style="opacity:1;fill:#4285f4;stroke:none;stroke-width:0.597293;stroke-opacity:1;-inkscape-stroke:none"
     d="M 315.83398 200.71484 L 327.66016 227.2793 C 328.40613 226.80284 329.18068 226.36795 330 226 C 334.31172 224.06362 342.37244 223.58878 346.98438 225.32617 C 351.72065 227.11041 355.88799 231.2938 358 236 C 358.88049 237.96199 359.32904 240.09375 359.64062 240.09375 C 360.00563 240.09375 367.64428 238.34395 375.26562 236.61719 C 381.28238 235.25398 387.11501 234.21544 388.48242 234 C 391.63993 233.50251 391.57108 233.81101 388 225 C 384.28509 215.8341 376.94736 208.69022 369.55078 204.40234 C 363.72472 201.02493 357.30446 198.92601 349 198 C 337.60178 196.72902 325.98003 197.64191 316.71094 200.43164 C 316.41488 200.52074 316.12678 200.62142 315.83398 200.71484 z "
     inkscape:label="bleu" />
</svg>
