<?xml version="1.0" encoding="utf-8"?>
<!-- Generator: Adobe Illustrator 28.0.0, SVG Export Plug-In . SVG Version: 6.00 Build 0)  -->
<svg version="1.1" id="Layer_1" xmlns="http://www.w3.org/2000/svg" xmlns:xlink="http://www.w3.org/1999/xlink" x="0px" y="0px"
	 viewBox="0 0 437 437" style="enable-background:new 0 0 437 437;" xml:space="preserve">
<style type="text/css">
	.st0{fill:#5EC1AF;}
	.st1{fill:#3597D3;}
	.st2{fill:#F0C41A;}
	.st3{fill:#EE384B;}
	.st4{fill:#E73441;}
	.st5{fill:#F78F22;}
	.st6{fill:#173452;}
	.st7{fill:#1A3A5C;}
	.st8{fill:#3F1928;}
	.st9{enable-background:new    ;}
	.st10{font-family:'Calibri-Bold';}
	.st11{font-size:76px;}
	.st12{font-family:'Calibri-Light';}
</style>
<polygon id="green" class="st0" points="103.5,74.5 128.5,99.5 51.5,175.5 27.5,151.5 "/>
<polygon id="green_00000135691513172098868400000009400974978773090490_" class="st1" points="410.5,150.5 385.5,175.5 309.5,98.5 
	333.5,74.5 "/>
<polygon id="yellow" class="st2" points="2,176 27,151 129,253 103,279 "/>
<polygon id="yellow_00000012460445112820642710000017482638721745942663_" class="st3" points="410.5,150.5 435.5,175.5 
	333.5,277.5 307.5,251.5 "/>
<polygon class="st4" points="173,303 196,312 289,58 265,49 "/>
<polygon class="st3" points="150.5,294.4 173.5,303.4 266.5,49.4 242.5,40.4 "/>
<circle class="st5" cx="223" cy="165" r="20"/>
<g>
	<polygon class="st6" points="253,85 245,104.3 269,113 276,93.7 	"/>
</g>
<polygon class="st7" points="253,85 229.7,75.8 222.2,96.6 245,104.3 "/>
<polyline class="st8" points="172.9,233 218.8,249.7 214.6,261.2 168.7,244.2 "/>
<polyline class="st8" points="166.9,249.4 212.8,266.1 208.6,277.6 162.7,260.6 "/>
<g>
	<text transform="matrix(1 0 0 1 51.4761 385.568)" class="st9"><tspan x="0" y="0" class="st10 st11">compo</tspan><tspan x="216.1" y="0" class="st12 st11">doc</tspan></text>
</g>
<text transform="matrix(1 0 0 1 8 -231)" class="st12" style="font-size:12px;">Lorem ipsum</text>
</svg>
