<?xml version="1.0" encoding="utf-8"?>
<!-- Generator: Adobe Illustrator 28.0.0, SVG Export Plug-In . SVG Version: 6.00 Build 0)  -->
<svg version="1.1" id="Layer_1" xmlns="http://www.w3.org/2000/svg" xmlns:xlink="http://www.w3.org/1999/xlink" x="0px" y="0px"
	 viewBox="0 0 437 437" style="enable-background:new 0 0 437 437;" xml:space="preserve">
<style type="text/css">
	.st0{fill:#5EC1AF;}
	.st1{fill:#3597D3;}
	.st2{fill:#F0C41A;}
	.st3{fill:#EE384B;}
	.st4{fill:#E73441;}
	.st5{fill:#F78F22;}
	.st6{fill:#173452;}
	.st7{fill:#1A3A5C;}
	.st8{fill:#3F1928;}
	.st9{font-family:'Calibri-Bold';}
	.st10{font-size:76px;}
</style>
<image style="display:none;overflow:visible;" width="434" height="434" xlink:href="compodoc.png"  transform="matrix(1 0 0 1 1.744 1.6763)">
</image>
<polygon id="green" class="st0" points="103.5,74.5 128.5,99.5 51.5,175.5 27.5,151.5 "/>
<polygon id="green_00000135691513172098868400000009400974978773090490_" class="st1" points="410.5,150.5 385.5,175.5 309.5,98.5 
	333.5,74.5 "/>
<polygon id="yellow" class="st2" points="2,176 27,151 129,253 103,279 "/>
<polygon id="yellow_00000012460445112820642710000017482638721745942663_" class="st3" points="410.5,150.5 435.5,175.5 
	333.5,277.5 307.5,251.5 "/>
<polygon class="st4" points="173,303 196,312 289,58 265,49 "/>
<polygon class="st3" points="150.5,294.4 173.5,303.4 266.5,49.4 242.5,40.4 "/>
<circle class="st5" cx="223" cy="165" r="20"/>
<g>
	<polygon class="st6" points="253,85 245,104.3 269,113 276,93.7 	"/>
</g>
<polygon class="st7" points="253,85 229.7,75.8 222.2,96.6 245,104.3 "/>
<polyline class="st8" points="172.9,233 218.8,249.7 214.6,261.2 168.7,244.2 "/>
<polyline class="st8" points="166.9,249.4 212.8,266.1 208.6,277.6 162.7,260.6 "/>
<g>
	<text transform="matrix(1 0 0 1 51.4761 385.568)" class="st9 st10">compo</text>
</g>
<g>
	<g>
		<path d="M302.4,333.2v42.7c0,3.5,0,6.8,0.1,10.4H299c-0.1-0.9-0.2-4.2-0.2-6c-1.8,4.4-5.8,6.9-12.1,6.9c-9.4,0-15-7.6-15-18.4
			c0-11.1,6.1-19.3,15.9-19.3c7.2,0,10.1,3.1,11.2,5.4v-21.6H302.4z M275.5,368.5c0,9.9,5.1,15.2,11.3,15.2
			c9.5,0,12.1-6.6,12.1-16.3c0-9.3-2.2-14.6-11.4-14.6C280.3,352.8,275.5,358.4,275.5,368.5z"/>
		<path d="M343.3,368.2c0,10-5.5,18.9-16.3,18.9c-9.7,0-15.8-8-15.8-18.9c0-10.3,5.7-18.9,16.1-18.9
			C337,349.4,343.3,356.9,343.3,368.2z M315.1,368.2c0,8.6,4.6,15.5,12.2,15.5c7.8,0,12.2-6.4,12.2-15.5c0-8.5-4.3-15.5-12.3-15.5
			C319,352.8,315.1,359.6,315.1,368.2z"/>
		<path d="M378.8,375.7c-1.7,6.3-5.9,11.4-14,11.4c-9,0-15.4-6.7-15.4-18.7c0-9.9,5.3-19,15.8-19c9.1,0,12.9,6.5,13.5,11.5h-3.7
			c-1.1-4.2-3.8-8.1-9.9-8.1c-7.6,0-12,6.5-12,15.5c0,8.6,4,15.5,11.6,15.5c5.3,0,8.4-2.7,10.3-8.1H378.8z"/>
	</g>
</g>
</svg>
